<svg xmlns="http://www.w3.org/2000/svg" viewBox="0 0 1442 1442"><defs><style>.cls-1{fill:#244056;}.cls-2{fill:#fff;}</style></defs><title>Asset 6</title><g id="Layer_2" data-name="Layer 2"><g id="Layer_1-2" data-name="Layer 1"><circle class="cls-1" cx="721" cy="721" r="721"/><path class="cls-2" d="M977.27,342.5H572v.5L327,588h0v469.61a73,73,0,0,0,72.89,72.89H725l35-41H399.93A31.93,31.93,0,0,1,368,1057.61V588h124.8A79.16,79.16,0,0,0,572,508.84V383.5H977.27a55.24,55.24,0,0,1,55.18,55.18V859c16.55,11,38.55,44,41,79V438.68A96.29,96.29,0,0,0,977.27,342.5Z"/><rect class="cls-2" x="600.5" y="510" width="329" height="41"/><rect class="cls-2" x="469" y="623.5" width="460" height="41"/><rect class="cls-2" x="469.5" y="733" width="460" height="41"/><rect class="cls-2" x="470.5" y="840" width="296" height="41"/><rect class="cls-2" x="470.5" y="952" width="296" height="41"/><path class="cls-2" d="M940.75,877A78.75,78.75,0,1,1,862,955.75,78.84,78.84,0,0,1,940.75,877m0-41A119.75,119.75,0,1,0,1060.5,955.75,119.75,119.75,0,0,0,940.75,836Z"/><path class="cls-2" d="M916,1091l-83.81,103.51L813,1122l-67.22,2.07L826,1025.64S837,1049,863,1067A168.41,168.41,0,0,0,916,1091Z"/><path class="cls-2" d="M968.78,1088l83.82,103.51,19.18-72.51,67.22,2.07-80.25-98.43s-11,23.36-37,41.36A168.41,168.41,0,0,1,968.78,1088Z"/></g></g></svg>