<svg xmlns="http://www.w3.org/2000/svg" viewBox="0 0 1442 1442"><defs><style>.cls-1{fill:#244056;}.cls-2{fill:#fff;}</style></defs><title>Asset 1</title><g id="Layer_2" data-name="Layer 2"><g id="Layer_1-2" data-name="Layer 1"><circle class="cls-1" cx="721" cy="721" r="721"/><path class="cls-2" d="M707.1,1177H696c-3.28-.88-6.6-1.64-9.84-2.65A386.56,386.56,0,0,1,601,1136c-58.12-35.23-103.59-83.2-140.43-139.83-31.93-49.1-55.81-102.05-74.41-157.44-34.65-103.15-51.35-209.58-57.36-317.92q-.88-16-1.75-32v-36c.38-1.19.85-2.36,1.12-3.57,5.08-22.42,24.57-38.49,47.43-38.3,25.82.23,51.19-3.14,76.37-8.35,57.41-11.87,112.62-30.85,167.12-52.06,25.71-10,51.29-20.36,76.93-30.56H707.1c5.65,1.87,11.48,3.31,16.92,5.67,67.69,29.37,136.51,55.52,208.39,72.81,30.56,7.34,61.43,12.77,93,12.44,29.12-.31,50.7,21.07,50.55,50.33a1324.73,1324.73,0,0,1-18.6,213.94c-11.21,66.43-27.49,131.52-51.56,194.52-21.6,56.54-48.93,110-85.65,158.32-39.54,52-87.37,94.25-146.17,123.41C752.54,1162.09,730.36,1171,707.1,1177Zm332.13-678.41c0-12.71.06-25.42,0-38.12,0-7.58-4.81-12.76-12.11-12.67-38.85.48-76.64-6.63-114-16.1-70-17.72-137.3-43.06-203.23-72.22-5.86-2.59-10.85-2.52-16.68,0-67.12,29.64-135.64,55.41-207,73.12-34.95,8.68-70.24,15.24-106.46,15.11-12,0-16,3.83-15.87,15.81a1292,1292,0,0,0,25.76,245.81c12.49,61.11,29.8,120.77,54.75,178,23.05,52.93,51.88,102.29,90.53,145.5,43.71,48.88,96.07,84.68,158.6,105.17a24.5,24.5,0,0,0,16.17,0c58.48-19.14,108.29-51.81,150.46-96.39C904.45,994.81,936.39,940.08,961.44,881c22.76-53.66,38.9-109.35,50.89-166.31C1027.34,643.45,1035.55,571.34,1039.23,498.59Z"/><path class="cls-2" d="M700.68,746.31a36.1,36.1,0,0,0-4.92-.67q-136.72,0-273.44.07c-4.18,0-5.75-1.15-6.73-5.28A1214.62,1214.62,0,0,1,390.26,592c-4.35-39.91-7-79.92-7.62-120.06,0-1.57,0-3.14,0-4.89a9.54,9.54,0,0,1,2-.53c39.6-.89,78.18-8.39,116.34-18.33,65.66-17.1,129-40.79,191.21-67.74,2.85-1.23,5.7-2.48,9.23-4v5.06q0,179.49,0,359a47.14,47.14,0,0,1-.73,5.86Z"/><path class="cls-2" d="M700.68,746.33a43.74,43.74,0,0,1,5.06-.56q137.82,0,275.64.07h4.89c-2.67,10-5.12,19.67-7.79,29.23-15.29,54.74-35.11,107.68-62.62,157.55-29,52.56-65.19,99.16-113.23,135.82a329.75,329.75,0,0,1-96.69,51.25c-1.2.4-2.43.73-4.31,1.29v-6.21q0-181.89,0-363.77a25.05,25.05,0,0,0-.91-4.69Z"/></g></g></svg>