<svg xmlns="http://www.w3.org/2000/svg" viewBox="0 0 1442 1442"><defs><style>.cls-1{fill:#244056;}.cls-2{fill:#fff;}</style></defs><title>Asset 7</title><g id="Layer_2" data-name="Layer 2"><g id="Layer_1-2" data-name="Layer 1"><circle class="cls-1" cx="721" cy="721" r="721"/><path class="cls-2" d="M392.27,707.79c53.92,0,107.85-.55,161.75.81,5.64.14,13.05,10.49,16.25,17.83,40.12,91.85,79.61,184,119.31,276.09,3,7,6.48,13.86,12.55,19.6L593.06,708.69H846.48C809.83,814,773.83,917.4,737.83,1020.81l2.61,1.44c3.22-6.7,6.66-13.28,9.61-20.11,39.72-92,79.72-184,118.68-276.39,6.15-14.59,13.6-19,27.85-18.73,50.32.91,100.67.36,156.62.36L717,1061,389,715.3Z"/><path class="cls-2" d="M838.2,675.74H601.43L719.57,506.11Z"/><path class="cls-2" d="M576.57,661.29,519.45,497.82H690.3Z"/><path class="cls-2" d="M749.24,498h170.7L863.15,661.16Z"/><path class="cls-2" d="M945.08,512.42,1057,675H888.23C906.93,621.5,925.31,569,945.08,512.42Z"/><path class="cls-2" d="M551.73,676.19H382l112.49-164C514.4,569.24,532.76,621.83,551.73,676.19Z"/><polygon class="cls-2" points="1075.66 390.78 1141 378.02 1075.66 365.25 1062.9 299.92 1050.13 365.25 984.79 378.02 1050.13 390.78 1062.9 456.12 1075.66 390.78"/><polygon class="cls-2" points="415.09 1036.72 494.65 1021.17 415.09 1005.63 399.55 926.07 384 1005.63 304.44 1021.17 384 1036.72 399.55 1116.28 415.09 1036.72"/></g></g></svg>