<svg xmlns="http://www.w3.org/2000/svg" viewBox="0 0 1442 1442"><defs><style>.cls-1{fill:#244056;}.cls-2{fill:#fff;}</style></defs><title>Asset 5</title><g id="Layer_2" data-name="Layer 2"><g id="Layer_1-2" data-name="Layer 1"><circle class="cls-1" cx="721" cy="721" r="721"/><rect class="cls-2" x="306" y="568" width="130" height="478"/><rect class="cls-2" x="488" y="496" width="130" height="550"/><polygon class="cls-2" points="800 424 670 424 670 965 800 826 800 424"/><polygon class="cls-2" points="971 850 917 800 982 781 982 358 852 358 852 845 917 905 971 850"/><polygon class="cls-2" points="957 806 1002 851 912 941 817.5 846.5 647 1017 722 1092 835 979 930 1074 1072 915 1110 953 1143 749 957 806"/></g></g></svg>