<svg xmlns="http://www.w3.org/2000/svg" viewBox="0 0 1442 1442"><defs><style>.cls-1{fill:#244056;}.cls-2{fill:#fff;}</style></defs><title>Asset 2</title><g id="Layer_2" data-name="Layer 2"><g id="Layer_1-2" data-name="Layer 1"><circle class="cls-1" cx="721" cy="721" r="721"/><path class="cls-2" d="M374,943c39.44-11.55,73-22.15,99.27-30.76,7.94-2.61,31.92-9.93,78-29.38a305.64,305.64,0,0,0,48.53-26.12c18.09-11.87,29.2-28,28.91-49.37s.4-42.81.4-64.22a10.18,10.18,0,0,0-2.83-7c-25.9-23.35-38.51-52.78-46.86-83.93-2.34-8.73-3.56-16.48-15.21-19.15-3.8-.88-7.43-4.62-9.83-7.84-15.07-20.23-21.47-42.48-16.13-66.6,1.31-5.92,5.23-12,9.7-16.55s5.54-8.07,3.93-14.05c-12.58-46.68-20.83-93.8-14-142,7.43-52.17,32.18-94.79,86.65-118.48,52.18-22.69,107.52-27,164.05-16.25,18.37,3.49,34.82,11.07,47.69,24.26a28.87,28.87,0,0,0,14.17,7.75c44.4,8.67,73.57,32.49,86.05,71.49A201.94,201.94,0,0,1,945.39,405c2.29,42.17-6.64,83.14-19.55,123.52-1,3.27-1.23,8.28.82,10.59,20.68,23.26,15.77,72.38-9.76,91.42-2.81,2.09-6.69,3.07-9.37,5.26-3.16,2.58-7.24,5.6-8,9-8,33.78-20.33,65.58-47.52,91.27-2.15,2-2.8,6-2.8,9.1,0,21.07,1,42.15.44,63.2-.43,16.71,6.58,30.37,19.76,40.91,11.83,9.47,24.68,18.43,38.54,25.17,38.91,18.93,59.75,24.31,59.75,24.31,32,9.72,72.9,23.29,129.34,43.23,13.78,14.72,42.13,49.07,52,101,5.73,30.17,5,65.08-3,87-28.43,77.92-182.83,85.42-432,95,0,0-283.06,10.88-371-79a107.26,107.26,0,0,1-15-20c-31.92-57.21,6.9-129.78,12-139A184.76,184.76,0,0,1,374,943Z"/></g></g></svg>