<svg xmlns="http://www.w3.org/2000/svg" viewBox="0 0 1442 1442"><defs><style>.cls-1{fill:#244056;}.cls-2{fill:#fff;}</style></defs><title>Asset 8</title><g id="Layer_2" data-name="Layer 2"><g id="Layer_1-2" data-name="Layer 1"><circle class="cls-1" cx="721" cy="721" r="721"/><path class="cls-2" d="M477.81,331.22c74.57,7.39,130,26.94,150.85,54.63l17.68,23.44,29.24-2.56c16.61-1.45,33.17-2.19,49.22-2.19,61.41,0,118.62,10.64,170,31.61a370.74,370.74,0,0,1,119.32,77.57c29.93,29.12,54.44,63.38,70.88,99.09,14.78,32.1,22.59,64,22.59,92.12,0,32.62-2.63,60.75-8,86a253.21,253.21,0,0,1-21.79,62.35c-18.6,36.67-45.08,67.63-87.44,111.94l-3.54,3.69c-24.74,25.8-44.28,46.18-52,97-1.18,7.77-2.44,20.83-1.24,48l-58.49-.09c-12.1-17.13-28.17-38.76-39.91-50.5l-23.16-23.16L781,1050.52c-21.65,7.22-32.51,9.65-43,9.65-11.92,0-27.44-2.82-59.31-10.79l-65.85-16.46v60.18c-3.44,5.11-10.17,12.92-17.7,20.68H536.4c-1.08-24.11-4-52.35-11.77-77.46-13.1-42.3-42.58-65-60.2-78.64-3.23-2.49-6.29-4.85-8.52-6.76-1.06-1-8.06-8.27-26.48-36.45-12.7-19.42-26.41-42-37.43-60.13-8.8-14.5-15.75-26-20.78-33.55l-12.91-19.54-23.13-3.61c-6.09-1-12.12-1.68-18-2.39-3.53-.42-8.09-1-12.47-1.6-.06-13.91.11-31.63,1.06-49.12a355.6,355.6,0,0,1,4-39.4c39.79-3.41,63.34-18.82,80.6-71.68l1.48-4.54.65-4.73c3.26-23.82,13.43-44.16,33-65.94,20.91-23.29,50.43-45.77,84-70.64l33.15-24.53L527,424.9a571.14,571.14,0,0,0-49.23-93.68M408.57,275c-24.2,0-39.69,1.11-39.69,1.11C420.85,334.55,455.73,390.65,478,445c-71.4,52.83-127.8,97.4-138,172-12.56,38.46-18.05,35.59-59,36-31.4.31-29.65,124.28-29,162,.53,30.81,43,30,75,35,17.11,25.9,70.82,120.75,94.07,140.86,16.8,14.52,42.76,28.3,52.93,61.14,13.62,44,8.8,107.68,10.34,114.78h132s49.48-43.42,49.48-66c33,8.25,53.61,12.37,72.16,12.37s35-4.12,59.8-12.37c16.49,16.5,49.48,66,49.48,66L991,1167s-7.67-67.14-3.75-93.15c5.44-36,16.25-45.71,41.41-72,81.13-84.84,132-148.45,132-296.9,0-140-146.75-353.39-435.82-353.39q-26.16,0-53.83,2.39C618.24,284,477.8,275,408.57,275Z"/><path class="cls-2" d="M535.92,649.29a41.39,41.39,0,0,1-41.34-41.9c.07-22.89,18.85-42.16,41.45-42.52,22-.35,42.3,19.11,42.9,41.21C579.58,630.09,560.34,649.42,535.92,649.29Z"/><path class="cls-2" d="M721,521a106.19,106.19,0,0,1,17.5-12,147.39,147.39,0,0,1,19.26-9.12,172.56,172.56,0,0,1,41.68-10.5A184.49,184.49,0,0,1,886,499.41l2.6.95,2.55,1.05,5.11,2.1c3.35,1.54,6.65,3.18,10,4.79,1.64.84,3.3,1.62,4.91,2.5s3.2,1.84,4.77,2.79l4.74,2.83,2.36,1.43c.78.48,1.51,1,2.27,1.56,3,2.1,6,4.21,9,6.37s5.7,4.63,8.52,7l2.1,1.76c.69.6,1.34,1.25,2,1.87l4,3.79c1.3,1.28,2.62,2.53,3.89,3.84s2.46,2.7,3.68,4A163.81,163.81,0,0,1,983,583.55c.8,1.6,1.63,3.17,2.38,4.8s1.46,3.27,2.15,4.91l1,2.45.94,2.51c.63,1.67,1.22,3.35,1.79,5A102,102,0,0,1,996,624c-5.09-5-10-9.74-14.88-14.34-1.25-1.14-2.52-2.25-3.73-3.38l-1.83-1.69L973.69,603c-1.26-1.09-2.47-2.19-3.7-3.28l-3.75-3.17a358.31,358.31,0,0,0-30.33-23.15c-1.29-.88-2.58-1.74-3.84-2.64s-2.63-1.65-3.94-2.48c-2.63-1.62-5.13-3.4-7.84-4.86l-7.92-4.64c-2.73-1.39-5.41-2.84-8.07-4.29-.67-.35-1.32-.75-2-1.07l-2.06-1-4.1-2c-1.37-.65-2.71-1.33-4.06-2s-2.8-1.18-4.19-1.78c-2.78-1.19-5.53-2.46-8.32-3.62l-4.21-1.67-2.11-.83-2.13-.76a304,304,0,0,0-71.21-16.68c-12.45-1.45-25.2-2.27-38.29-2.55-6.54-.15-13.18-.16-19.92-.08S728.11,520.79,721,521Z"/></g></g></svg>