<svg xmlns="http://www.w3.org/2000/svg" viewBox="0 0 1442 1442"><defs><style>.cls-1{fill:#244056;}.cls-2{fill:#fff;}</style></defs><title>Asset 4</title><g id="Layer_2" data-name="Layer 2"><g id="Layer_1-2" data-name="Layer 1"><circle class="cls-1" cx="721" cy="721" r="721"/><path class="cls-2" d="M980.89,992.35H492.11A68.39,68.39,0,0,1,423.79,924V540a68.39,68.39,0,0,1,68.32-68.32H980.89A68.39,68.39,0,0,1,1049.21,540v73h-38.42V540a29.93,29.93,0,0,0-29.9-29.9H492.11a29.94,29.94,0,0,0-29.9,29.9V924a29.94,29.94,0,0,0,29.9,29.9H980.89a29.93,29.93,0,0,0,29.9-29.9V829h38.42v95A68.39,68.39,0,0,1,980.89,992.35Z"/><path class="cls-2" d="M1027,653V789H881a68,68,0,0,1,0-136h146m40-40H881A108,108,0,0,0,773,721h0A108,108,0,0,0,881,829h186V613Z"/><rect class="cls-2" x="963.41" y="825.32" width="11.18" height="17.79"/><path class="cls-2" d="M918.6,914.59H882.32V903.41H918.6Zm-72.55,0H809.77V903.41h36.28Zm-72.55,0H737.22V903.41H773.5Zm-72.55,0H664.67V903.41H701Zm-72.55,0H592.12V903.41H628.4Zm-72.56,0H519.57V903.41h36.27Zm400.06-.4-2.09-11a11.84,11.84,0,0,0,9.6-11.62V879.39h11.18v12.19A23,23,0,0,1,955.9,914.19ZM499.09,891.33H487.91V855.05h11.18Zm0-72.55H487.91V782.5h11.18Zm0-72.55H487.91V710h11.18Zm0-72.55H487.91V637.4h11.18Zm0-72.55H487.91V564.85h11.18Zm475.5-33.69H963.41v-7.52a11.85,11.85,0,0,0-11.83-11.83h-1.39V536.91h1.39a23,23,0,0,1,23,23Zm-60.67-19.35H877.64V536.91h36.28Zm-72.55,0H805.09V536.91h36.28Zm-72.55,0H732.54V536.91h36.28Zm-72.55,0H660V536.91h36.28Zm-72.55,0H587.44V536.91h36.28Zm-72.55,0H514.89V536.91h36.28Z"/><rect class="cls-2" x="963.41" y="603.78" width="11.18" height="17.79"/><circle class="cls-2" cx="879" cy="721" r="41"/><polygon class="cls-2" points="498 453 907 453 838 307 498 453"/><polygon class="cls-2" points="766.14 1356.14 737.86 1327.86 867.72 1198 736.86 1067.14 765.14 1038.86 924.28 1198 766.14 1356.14"/><rect class="cls-2" x="535" y="1177.5" width="352" height="40"/></g></g></svg>