<svg xmlns="http://www.w3.org/2000/svg" viewBox="0 0 1442 1442"><defs><style>.cls-1{fill:#244056;}.cls-2{fill:#fff;}</style></defs><title>Asset 3</title><g id="Layer_2" data-name="Layer 2"><g id="Layer_1-2" data-name="Layer 1"><circle class="cls-1" cx="721" cy="721" r="721"/><path class="cls-2" d="M976.89,985.35H488.11A68.39,68.39,0,0,1,419.79,917V533a68.39,68.39,0,0,1,68.32-68.32H976.89A68.39,68.39,0,0,1,1045.21,533v73h-38.42V533a29.93,29.93,0,0,0-29.9-29.9H488.11a29.94,29.94,0,0,0-29.9,29.9V917a29.94,29.94,0,0,0,29.9,29.9H976.89a29.93,29.93,0,0,0,29.9-29.9V822h38.42v95A68.39,68.39,0,0,1,976.89,985.35Z"/><path class="cls-2" d="M1023,646V782H877a68,68,0,0,1,0-136h146m40-40H877A108,108,0,0,0,769,714h0A108,108,0,0,0,877,822h186V606Z"/><rect class="cls-2" x="959.41" y="818.32" width="11.18" height="17.79"/><path class="cls-2" d="M914.6,907.59H878.32V896.41H914.6Zm-72.55,0H805.77V896.41h36.28Zm-72.55,0H733.22V896.41H769.5Zm-72.55,0H660.67V896.41H697Zm-72.55,0H588.12V896.41H624.4Zm-72.56,0H515.57V896.41h36.27Zm400.06-.4-2.09-11a11.84,11.84,0,0,0,9.6-11.62V872.39h11.18v12.19A23,23,0,0,1,951.9,907.19ZM495.09,884.33H483.91V848.05h11.18Zm0-72.55H483.91V775.5h11.18Zm0-72.55H483.91V703h11.18Zm0-72.55H483.91V630.4h11.18Zm0-72.55H483.91V557.85h11.18Zm475.5-33.69H959.41v-7.52a11.85,11.85,0,0,0-11.83-11.83h-1.39V529.91h1.39a23,23,0,0,1,23,23Zm-60.67-19.35H873.64V529.91h36.28Zm-72.55,0H801.09V529.91h36.28Zm-72.55,0H728.54V529.91h36.28Zm-72.55,0H656V529.91h36.28Zm-72.55,0H583.44V529.91h36.28Zm-72.55,0H510.89V529.91h36.28Z"/><rect class="cls-2" x="959.41" y="596.78" width="11.18" height="17.79"/><circle class="cls-2" cx="875" cy="714" r="41"/><polygon class="cls-2" points="494 446 903 446 834 300 494 446"/><polygon class="cls-2" points="689.14 1349.14 717.43 1320.86 587.57 1191 718.43 1060.14 690.14 1031.86 531 1191 689.14 1349.14"/><rect class="cls-2" x="568.28" y="1170.5" width="352" height="40"/></g></g></svg>